<?xml version="1.0" encoding="UTF-8" standalone="no"?>
<svg
   xmlns:dc="http://purl.org/dc/elements/1.1/"
   xmlns:cc="http://creativecommons.org/ns#"
   xmlns:rdf="http://www.w3.org/1999/02/22-rdf-syntax-ns#"
   xmlns:svg="http://www.w3.org/2000/svg"
   xmlns="http://www.w3.org/2000/svg"
   xmlns:sodipodi="http://sodipodi.sourceforge.net/DTD/sodipodi-0.dtd"
   xmlns:inkscape="http://www.inkscape.org/namespaces/inkscape"
   inkscape:export-ydpi="300"
   inkscape:export-xdpi="300"
   inkscape:export-filename="C:\Users\romain.boistel\Nextcloud\Documents\Pro\IST\Évènements - projets\Badges\Cinq euros\V2\vectoriel\OpenScience_O.png"
   sodipodi:docname="OpenScience_O.svg"
   inkscape:version="1.0 (4035a4fb49, 2020-05-01)"
   id="svg8"
   version="1.1"
   viewBox="0 0 210 297"
   height="297mm"
   width="210mm">
  <defs
     id="defs2" />
  <sodipodi:namedview
     inkscape:window-maximized="1"
     inkscape:window-y="-8"
     inkscape:window-x="1592"
     inkscape:window-height="1027"
     inkscape:window-width="1920"
     showgrid="false"
     inkscape:document-rotation="0"
     inkscape:current-layer="layer1"
     inkscape:document-units="mm"
     inkscape:cy="560"
     inkscape:cx="400"
     inkscape:zoom="0.35"
     inkscape:pageshadow="2"
     inkscape:pageopacity="0.0"
     borderopacity="1.0"
     bordercolor="#666666"
     pagecolor="#ffffff"
     id="base" />
  <metadata
     id="metadata5">
    <rdf:RDF>
      <cc:Work
         rdf:about="">
        <dc:format>image/svg+xml</dc:format>
        <dc:type
           rdf:resource="http://purl.org/dc/dcmitype/StillImage" />
        <dc:title></dc:title>
      </cc:Work>
    </rdf:RDF>
  </metadata>
  <g
     id="layer1"
     inkscape:groupmode="layer"
     inkscape:label="Calque 1">
    <g
       transform="matrix(0.17638888,0,0,-0.17638888,66.523633,76.713305)"
       id="g112">
      <path
         id="path114"
         style="fill:#231f20;fill-opacity:1;fill-rule:nonzero;stroke:none"
         d="m 0,0 c -36.678,0 -66.518,-29.84 -66.518,-66.519 0,-36.678 29.84,-66.517 66.518,-66.517 36.679,0 66.519,29.839 66.519,66.517 C 66.519,-29.84 36.679,0 0,0 m 0,-167.232 c -55.533,0 -100.713,45.18 -100.713,100.713 0,55.534 45.18,100.714 100.713,100.714 55.534,0 100.715,-45.18 100.715,-100.714 0,-55.533 -45.181,-100.713 -100.715,-100.713" />
    </g>
    <g
       transform="matrix(0.17638888,0,0,-0.17638888,66.586603,83.53003)"
       id="g116">
      <path
         id="path118"
         style="fill:#231f20;fill-opacity:1;fill-rule:nonzero;stroke:none"
         d="M 0,0 C 15.59,0 28.228,-12.639 28.228,-28.229 28.228,-43.818 15.59,-56.457 0,-56.457 c -15.59,0 -28.229,12.639 -28.229,28.228 C -28.229,-12.639 -15.59,0 0,0" />
    </g>
  </g>
</svg>
