<?xml version="1.0" encoding="UTF-8" standalone="no"?>
<svg
   xmlns:dc="http://purl.org/dc/elements/1.1/"
   xmlns:cc="http://creativecommons.org/ns#"
   xmlns:rdf="http://www.w3.org/1999/02/22-rdf-syntax-ns#"
   xmlns:svg="http://www.w3.org/2000/svg"
   xmlns="http://www.w3.org/2000/svg"
   xmlns:sodipodi="http://sodipodi.sourceforge.net/DTD/sodipodi-0.dtd"
   xmlns:inkscape="http://www.inkscape.org/namespaces/inkscape"
   inkscape:export-ydpi="300"
   inkscape:export-xdpi="300"
   inkscape:export-filename="C:\Users\romain.boistel\Nextcloud\Documents\Pro\IST\Évènements - projets\Badges\Cinq euros\vectoriel\logo3 fichier source-full blanc-background.png"
   sodipodi:docname="logo3 fichier source-full blanc-background.svg"
   inkscape:version="1.0 (4035a4fb49, 2020-05-01)"
   id="svg8"
   version="1.1"
   viewBox="0 0 210 297"
   height="297mm"
   width="210mm">
  <defs
     id="defs2">
    <clipPath
       clipPathUnits="userSpaceOnUse"
       id="clipPath26">
      <path
         d="M 0,1080 H 1079 V 0 H 0 Z"
         id="path24" />
    </clipPath>
    <clipPath
       clipPathUnits="userSpaceOnUse"
       id="clipPath38">
      <path
         d="M 0,1080 H 1079 V 0 H 0 Z"
         id="path36" />
    </clipPath>
    <clipPath
       clipPathUnits="userSpaceOnUse"
       id="clipPath50">
      <path
         d="M 0,1080 H 1079 V 0 H 0 Z"
         id="path48" />
    </clipPath>
    <clipPath
       clipPathUnits="userSpaceOnUse"
       id="clipPath62">
      <path
         d="M 0,1080 H 1079 V 0 H 0 Z"
         id="path60" />
    </clipPath>
    <clipPath
       clipPathUnits="userSpaceOnUse"
       id="clipPath74">
      <path
         d="M 0,1080 H 1079 V 0 H 0 Z"
         id="path72" />
    </clipPath>
    <clipPath
       clipPathUnits="userSpaceOnUse"
       id="clipPath126">
      <path
         d="M 0,1080 H 1079 V 0 H 0 Z"
         id="path124" />
    </clipPath>
    <clipPath
       clipPathUnits="userSpaceOnUse"
       id="clipPath174">
      <path
         d="M 0,1080 H 1079 V 0 H 0 Z"
         id="path172" />
    </clipPath>
  </defs>
  <sodipodi:namedview
     inkscape:window-maximized="1"
     inkscape:window-y="-8"
     inkscape:window-x="1592"
     inkscape:window-height="1027"
     inkscape:window-width="1920"
     inkscape:snap-bbox-midpoints="true"
     inkscape:snap-bbox="true"
     showgrid="false"
     inkscape:document-rotation="0"
     inkscape:current-layer="g19"
     inkscape:document-units="mm"
     inkscape:cy="425.56648"
     inkscape:cx="341.42434"
     inkscape:zoom="0.7"
     inkscape:pageshadow="2"
     inkscape:pageopacity="0.0"
     borderopacity="1.0"
     bordercolor="#666666"
     pagecolor="#ffffff"
     id="base" />
  <metadata
     id="metadata5">
    <rdf:RDF>
      <cc:Work
         rdf:about="">
        <dc:format>image/svg+xml</dc:format>
        <dc:type
           rdf:resource="http://purl.org/dc/dcmitype/StillImage" />
        <dc:title></dc:title>
      </cc:Work>
    </rdf:RDF>
  </metadata>
  <g
     id="layer1"
     inkscape:groupmode="layer"
     inkscape:label="Calque 1">
    <g
       transform="translate(-2.6458333,-18.142857)"
       id="g19">
      <rect
         y="18.914669"
         x="3.0396683"
         height="209.7037"
         width="209.70369"
         id="rect237"
         style="fill:#96c34f;fill-opacity:1;stroke:#96c34f;stroke-width:0.2963" />
      <g
         transform="matrix(0.35277777,0,0,-0.35277777,-82.366644,314.69344)"
         inkscape:label="logo3 fichier source adobe illustrator - Copie"
         id="g18">
        <g
           style="fill:#ffffff;fill-opacity:0.996933;stroke:#000000;stroke-opacity:0"
           id="g20"
           transform="matrix(0.49797315,0,0,0.49796829,270.34553,271.84822)">
          <g
             style="fill:#ffffff;fill-opacity:0.996933;stroke:#000000;stroke-opacity:0"
             clip-path="url(#clipPath26)"
             id="g22">
            <g
               style="fill:#ffffff;fill-opacity:0.996933;stroke:#000000;stroke-opacity:0"
               transform="translate(1051.9404,540.9219)"
               id="g28">
              <path
                 id="path30"
                 style="fill:#ffffff;fill-opacity:0.996933;fill-rule:nonzero;stroke:#000000;stroke-opacity:0"
                 d="m 0,0 c 0,-282.67 -229.149,-511.818 -511.818,-511.818 -282.66,0 -511.808,229.148 -511.808,511.818 0,282.669 229.148,511.818 511.808,511.818 C -229.149,511.818 0,282.669 0,0" />
            </g>
          </g>
        </g>
        <g
           style="fill:#ffffff;fill-opacity:1;stroke:#96c34f;stroke-opacity:1"
           id="g44"
           transform="matrix(0.49951202,0,0,0.49951202,270.07749,270.97417)">
          <g
             style="fill:#ffffff;fill-opacity:1;stroke:#96c34f;stroke-opacity:1"
             clip-path="url(#clipPath50)"
             id="g46">
            <g
               style="fill:#ffffff;fill-opacity:1;stroke:#96c34f;stroke-opacity:1"
               transform="translate(902.5,541)"
               id="g52">
              <path
                 id="path54"
                 style="fill:#ffffff;fill-opacity:1;stroke:#96c34f;stroke-width:27;stroke-linecap:butt;stroke-linejoin:miter;stroke-miterlimit:10;stroke-dasharray:none;stroke-opacity:1"
                 d="m 0,0 c 0,-200.756 -162.745,-363.5 -363.5,-363.5 -200.755,0 -363.5,162.744 -363.5,363.5 0,200.755 162.745,363.5 363.5,363.5 C -162.745,363.5 0,200.755 0,0 Z" />
            </g>
          </g>
        </g>
        <g
           style="stroke:#96c34f;stroke-opacity:1"
           id="g56"
           transform="matrix(0.49951202,0,0,0.49951202,270.07749,270.97417)">
          <g
             style="stroke:#96c34f;stroke-opacity:1"
             clip-path="url(#clipPath62)"
             id="g58">
            <g
               style="stroke:#96c34f;stroke-opacity:1"
               transform="translate(426.0425,880.686)"
               id="g64">
              <path
                 id="path66"
                 style="fill:none;stroke:#96c34f;stroke-width:16;stroke-linecap:butt;stroke-linejoin:miter;stroke-miterlimit:10;stroke-dasharray:none;stroke-opacity:1"
                 d="m 0,0 c 42.866,14.056 103.469,-54.128 175.958,-135.686 32.193,-36.221 59.365,-74.457 85,-110 30.147,-41.8 49.964,-69.276 69,-102 39.249,-67.472 98.59,-169.482 66,-211 -26.222,-33.404 -103.005,-16.248 -216,9 -50.594,11.305 -93.993,25.706 -122,35 -28.143,9.339 -75.152,24.938 -126,48 -107.142,48.593 -175.582,79.633 -176.478,120.88 -1.137,52.352 107.041,97.985 178.478,128.12 32.219,13.591 61.146,22.728 119,41 53.358,16.853 91.572,28.922 133,38 92.94,20.365 193.557,42.413 221,3 24.708,-35.486 -18.582,-108.332 -79,-210 -25.754,-43.336 -51.13,-78.04 -68,-101 -21.146,-28.777 -52.576,-71.551 -94,-115 C 86.794,-644.717 42.591,-691.081 6.65,-680.87 c -57.043,16.205 -62.939,166.577 -70.692,321.184 -1.148,22.876 -3.254,76.144 3,145 C -51.045,-104.608 -42.821,-14.042 0,0 Z" />
            </g>
          </g>
        </g>
        <g
           id="g68"
           transform="matrix(0.49951202,0,0,0.49951202,270.07749,270.97417)">
          <g
             clip-path="url(#clipPath74)"
             id="g70">
            <g
               transform="translate(885.9365,775.3218)"
               id="g76">
              <path
                 id="path78"
                 style="fill:#f68212;fill-opacity:1;fill-rule:nonzero;stroke:none"
                 d="m 0,0 h -19.278 v 47.541 c 0,15.913 -12.946,28.859 -28.86,28.859 -15.913,0 -28.86,-12.946 -28.86,-28.859 V 40.95 h -19.277 v 6.591 c 0,26.542 21.594,48.137 48.137,48.137 C -21.595,95.678 0,74.083 0,47.541 Z" />
            </g>
            <g
               transform="translate(837.6782,785.2134)"
               id="g80">
              <path
                 id="path82"
                 style="fill:#f68212;fill-opacity:1;fill-rule:nonzero;stroke:none"
                 d="m 0,0 c -20.678,0 -37.5,-16.822 -37.5,-37.5 0,-20.677 16.822,-37.499 37.5,-37.499 20.677,0 37.5,16.822 37.5,37.499 C 37.5,-16.822 20.677,0 0,0 m 0,-94.277 c -31.307,0 -56.778,25.47 -56.778,56.777 0,31.308 25.471,56.778 56.778,56.778 31.307,0 56.778,-25.47 56.778,-56.778 0,-31.307 -25.471,-56.777 -56.778,-56.777" />
            </g>
            <g
               transform="translate(837.8794,763.4268)"
               id="g84">
              <path
                 id="path86"
                 style="fill:#f68212;fill-opacity:1;fill-rule:nonzero;stroke:none"
                 d="m 0,0 c 8.789,0 15.914,-7.125 15.914,-15.914 0,-8.789 -7.125,-15.914 -15.914,-15.914 -8.789,0 -15.914,7.125 -15.914,15.914 C -15.914,-7.125 -8.789,0 0,0" />
            </g>
            <g
               transform="translate(424.6782,923.2134)"
               id="g88">
              <path
                 id="path90"
                 style="fill:#231f20;fill-opacity:1;fill-rule:nonzero;stroke:none"
                 d="m 0,0 c -20.678,0 -37.5,-16.822 -37.5,-37.5 0,-20.677 16.822,-37.499 37.5,-37.499 20.677,0 37.5,16.822 37.5,37.499 C 37.5,-16.822 20.677,0 0,0 m 0,-94.277 c -31.307,0 -56.778,25.47 -56.778,56.777 0,31.308 25.471,56.778 56.778,56.778 31.307,0 56.778,-25.47 56.778,-56.778 0,-31.307 -25.471,-56.777 -56.778,-56.777" />
            </g>
            <g
               transform="translate(424.8794,901.4268)"
               id="g92">
              <path
                 id="path94"
                 style="fill:#231f20;fill-opacity:1;fill-rule:nonzero;stroke:none"
                 d="m 0,0 c 8.789,0 15.914,-7.125 15.914,-15.914 0,-8.789 -7.125,-15.914 -15.914,-15.914 -8.789,0 -15.914,7.125 -15.914,15.914 C -15.914,-7.125 -8.789,0 0,0" />
            </g>
            <g
               transform="translate(826.6782,357.2139)"
               id="g96">
              <path
                 id="path98"
                 style="fill:#231f20;fill-opacity:1;fill-rule:nonzero;stroke:none"
                 d="M 0,0 C -20.678,0 -37.5,-16.823 -37.5,-37.5 -37.5,-58.178 -20.678,-75 0,-75 20.677,-75 37.5,-58.178 37.5,-37.5 37.5,-16.823 20.677,0 0,0 m 0,-94.278 c -31.307,0 -56.778,25.47 -56.778,56.778 0,31.307 25.471,56.777 56.778,56.777 31.307,0 56.778,-25.47 56.778,-56.777 0,-31.308 -25.471,-56.778 -56.778,-56.778" />
            </g>
            <g
               transform="translate(826.8794,335.4268)"
               id="g100">
              <path
                 id="path102"
                 style="fill:#231f20;fill-opacity:1;fill-rule:nonzero;stroke:none"
                 d="m 0,0 c 8.789,0 15.914,-7.125 15.914,-15.914 0,-8.789 -7.125,-15.914 -15.914,-15.914 -8.789,0 -15.914,7.125 -15.914,15.914 C -15.914,-7.125 -8.789,0 0,0" />
            </g>
            <g
               transform="translate(432.6782,232.2139)"
               id="g104">
              <path
                 id="path106"
                 style="fill:#231f20;fill-opacity:1;fill-rule:nonzero;stroke:none"
                 d="M 0,0 C -20.678,0 -37.5,-16.823 -37.5,-37.5 -37.5,-58.178 -20.678,-75 0,-75 20.677,-75 37.5,-58.178 37.5,-37.5 37.5,-16.823 20.677,0 0,0 m 0,-94.278 c -31.307,0 -56.778,25.47 -56.778,56.778 0,31.307 25.471,56.777 56.778,56.777 31.307,0 56.778,-25.47 56.778,-56.777 0,-31.308 -25.471,-56.778 -56.778,-56.778" />
            </g>
            <g
               transform="translate(432.8794,210.4268)"
               id="g108">
              <path
                 id="path110"
                 style="fill:#231f20;fill-opacity:1;fill-rule:nonzero;stroke:none"
                 d="m 0,0 c 8.789,0 15.914,-7.125 15.914,-15.914 0,-8.789 -7.125,-15.914 -15.914,-15.914 -8.789,0 -15.914,7.125 -15.914,15.914 C -15.914,-7.125 -8.789,0 0,0" />
            </g>
            <g
               transform="translate(179.6777,608.2319)"
               id="g112">
              <path
                 id="path114"
                 style="fill:#231f20;fill-opacity:1;fill-rule:nonzero;stroke:none"
                 d="m 0,0 c -36.678,0 -66.518,-29.84 -66.518,-66.519 0,-36.678 29.84,-66.517 66.518,-66.517 36.679,0 66.519,29.839 66.519,66.517 C 66.519,-29.84 36.679,0 0,0 m 0,-167.232 c -55.533,0 -100.713,45.18 -100.713,100.713 0,55.534 45.18,100.714 100.713,100.714 55.534,0 100.715,-45.18 100.715,-100.714 0,-55.533 -45.181,-100.713 -100.715,-100.713" />
            </g>
            <g
               transform="translate(180.0347,569.5859)"
               id="g116">
              <path
                 id="path118"
                 style="fill:#231f20;fill-opacity:1;fill-rule:nonzero;stroke:none"
                 d="M 0,0 C 15.59,0 28.228,-12.639 28.228,-28.229 28.228,-43.818 15.59,-56.457 0,-56.457 c -15.59,0 -28.229,12.639 -28.229,28.228 C -28.229,-12.639 -15.59,0 0,0" />
            </g>
          </g>
        </g>
        <g
           id="g168"
           transform="matrix(0.49951202,0,0,0.49951202,270.07749,270.97417)">
          <g
             clip-path="url(#clipPath174)"
             id="g170">
            <g
               transform="translate(310.9937,567.8652)"
               id="g176">
              <path
                 id="path178"
                 style="fill:#231f20;fill-opacity:1;fill-rule:nonzero;stroke:none"
                 d="m 0,0 c 2.654,2.817 5.667,5.135 9.04,6.94 3.372,1.806 7.386,2.709 12.042,2.709 3.525,0 6.788,-0.783 9.791,-2.339 3.002,-1.566 5.591,-3.829 7.767,-6.788 2.175,-2.97 3.883,-6.592 5.124,-10.867 1.24,-4.286 1.86,-9.149 1.86,-14.588 0,-5.091 -0.707,-9.801 -2.122,-14.098 -1.414,-4.309 -3.394,-8.039 -5.939,-11.216 -2.545,-3.177 -5.591,-5.657 -9.138,-7.441 -3.546,-1.784 -7.473,-2.676 -11.781,-2.676 -3.525,0 -6.484,0.501 -8.877,1.501 -2.393,0.99 -4.569,2.339 -6.527,4.047 V -80.794 H -18.994 V 8.344 h 12.532 c 2.524,0 4.177,-1.121 4.961,-3.384 z m 1.24,-40.925 c 1.523,-1.642 3.177,-2.828 4.961,-3.513 1.784,-0.708 3.655,-1.044 5.613,-1.044 1.871,0 3.59,0.359 5.156,1.109 1.567,0.74 2.926,1.915 4.08,3.547 1.153,1.62 2.055,3.753 2.708,6.363 0.653,2.611 0.979,5.788 0.979,9.53 0,3.568 -0.261,6.559 -0.783,9.007 -0.522,2.426 -1.251,4.395 -2.186,5.907 -0.936,1.501 -2.057,2.567 -3.362,3.231 -1.305,0.642 -2.763,0.979 -4.373,0.979 -2.959,0 -5.396,-0.544 -7.31,-1.643 C 4.808,-8.529 2.98,-10.117 1.24,-12.206 Z" />
            </g>
            <g
               transform="translate(383.7002,538.7559)"
               id="g180">
              <path
                 id="path182"
                 style="fill:#231f20;fill-opacity:1;fill-rule:nonzero;stroke:none"
                 d="m 0,0 c 0.653,-5.668 2.372,-9.769 5.156,-12.293 2.785,-2.545 6.375,-3.829 10.77,-3.829 2.35,0 4.373,0.294 6.07,0.859 1.697,0.555 3.209,1.198 4.536,1.882 1.327,0.708 2.546,1.327 3.655,1.883 1.11,0.576 2.274,0.848 3.493,0.848 1.61,0 2.828,-0.577 3.654,-1.751 l 5.875,-7.245 c -2.089,-2.382 -4.34,-4.33 -6.755,-5.842 -2.415,-1.501 -4.896,-2.665 -7.441,-3.514 -2.546,-0.849 -5.092,-1.446 -7.637,-1.762 -2.545,-0.327 -4.971,-0.49 -7.277,-0.49 -4.744,0 -9.193,0.762 -13.349,2.317 -4.155,1.535 -7.788,3.83 -10.899,6.886 -3.112,3.046 -5.57,6.832 -7.376,11.347 -1.806,4.525 -2.709,9.79 -2.709,15.795 0,4.525 0.773,8.801 2.317,12.847 1.545,4.047 3.764,7.604 6.658,10.65 2.894,3.036 6.397,5.461 10.509,7.245 4.111,1.784 8.756,2.676 13.935,2.676 4.482,0 8.583,-0.696 12.303,-2.088 3.72,-1.393 6.919,-3.427 9.595,-6.07 2.676,-2.655 4.765,-5.907 6.266,-9.769 1.501,-3.84 2.252,-8.203 2.252,-13.087 0,-1.512 -0.066,-2.763 -0.196,-3.709 C 43.274,2.828 43.035,2.056 42.687,1.501 42.339,0.936 41.871,0.544 41.284,0.315 40.696,0.108 39.945,0 39.032,0 Z m 25.456,11.749 c 0,1.599 -0.207,3.176 -0.621,4.699 -0.413,1.512 -1.087,2.872 -2.023,4.079 -0.936,1.197 -2.165,2.165 -3.688,2.894 -1.523,0.751 -3.372,1.121 -5.548,1.121 -3.829,0 -6.831,-1.11 -9.007,-3.296 C 2.394,19.048 0.958,15.882 0.261,11.749 Z" />
            </g>
            <g
               transform="translate(456.085,568.9043)"
               id="g184">
              <path
                 id="path186"
                 style="fill:#231f20;fill-opacity:1;fill-rule:nonzero;stroke:none"
                 d="m 0,0 c 1.305,1.218 2.654,2.35 4.047,3.394 1.392,1.044 2.883,1.925 4.471,2.654 1.588,0.707 3.307,1.273 5.156,1.686 1.849,0.413 3.862,0.631 6.037,0.631 3.699,0 6.974,-0.653 9.824,-1.936 2.85,-1.273 5.254,-3.057 7.212,-5.341 1.958,-2.285 3.438,-5.005 4.439,-8.159 1,-3.155 1.501,-6.593 1.501,-10.291 V -60.364 H 22.453 v 43.002 c 0,3.307 -0.762,5.885 -2.285,7.735 -1.522,1.849 -3.764,2.773 -6.722,2.773 -2.219,0 -4.298,-0.467 -6.234,-1.403 -1.936,-0.935 -3.818,-2.208 -5.646,-3.807 v -48.3 H -18.667 V 7.31 h 12.532 c 2.523,0 4.177,-1.131 4.96,-3.394 z" />
            </g>
            <g
               transform="translate(596.8662,584.3081)"
               id="g188">
              <path
                 id="path190"
                 style="fill:#231f20;fill-opacity:1;fill-rule:nonzero;stroke:none"
                 d="m 0,0 c -0.653,-1.044 -1.338,-1.828 -2.045,-2.35 -0.729,-0.522 -1.654,-0.783 -2.774,-0.783 -1.012,0 -2.089,0.315 -3.242,0.946 -1.153,0.631 -2.459,1.338 -3.916,2.122 -1.447,0.783 -3.122,1.49 -4.993,2.121 -1.861,0.631 -4.004,0.946 -6.386,0.946 -4.144,0 -7.223,-0.881 -9.247,-2.643 -2.023,-1.762 -3.023,-4.145 -3.023,-7.147 0,-1.915 0.598,-3.503 1.827,-4.765 1.207,-1.262 2.806,-2.339 4.786,-3.263 1.991,-0.914 4.254,-1.741 6.788,-2.514 2.546,-0.761 5.157,-1.609 7.8,-2.545 2.654,-0.936 5.255,-2.034 7.811,-3.296 2.534,-1.262 4.797,-2.872 6.788,-4.83 1.969,-1.958 3.568,-4.341 4.786,-7.136 1.219,-2.818 1.828,-6.201 1.828,-10.161 0,-4.395 -0.762,-8.506 -2.285,-12.325 -1.523,-3.818 -3.731,-7.169 -6.613,-10.019 -2.905,-2.839 -6.473,-5.091 -10.716,-6.723 -4.231,-1.632 -9.061,-2.447 -14.457,-2.447 -2.959,0 -5.972,0.305 -9.04,0.913 -3.068,0.609 -6.037,1.469 -8.909,2.578 -2.872,1.111 -5.57,2.427 -8.083,3.949 -2.535,1.524 -4.732,3.22 -6.603,5.091 l 6.527,10.302 c 0.533,0.74 1.207,1.36 2.056,1.86 0.849,0.501 1.773,0.751 2.774,0.751 1.305,0 2.622,-0.413 3.949,-1.24 1.327,-0.827 2.828,-1.74 4.504,-2.741 1.675,-1.001 3.611,-1.915 5.776,-2.731 2.176,-0.827 4.743,-1.24 7.702,-1.24 4.003,0 7.114,0.881 9.334,2.633 2.218,1.762 3.328,4.558 3.328,8.397 0,2.22 -0.609,4.015 -1.827,5.418 -1.208,1.393 -2.818,2.535 -4.798,3.449 -1.98,0.913 -4.231,1.718 -6.755,2.425 -2.524,0.686 -5.102,1.458 -7.767,2.317 -2.655,0.849 -5.244,1.883 -7.757,3.134 -2.534,1.229 -4.786,2.86 -6.755,4.884 -1.991,2.023 -3.59,4.547 -4.809,7.571 -1.218,3.025 -1.827,6.756 -1.827,11.194 0,3.579 0.729,7.049 2.154,10.443 1.436,3.394 3.557,6.418 6.331,9.073 2.785,2.654 6.201,4.776 10.248,6.364 4.046,1.588 8.692,2.382 13.902,2.382 2.916,0 5.755,-0.218 8.518,-0.675 2.763,-0.456 5.385,-1.142 7.865,-2.034 2.491,-0.892 4.797,-1.958 6.962,-3.198 2.143,-1.24 4.079,-2.644 5.765,-4.21 z" />
            </g>
            <g
               transform="translate(664.0269,560.1611)"
               id="g192">
              <path
                 id="path194"
                 style="fill:#231f20;fill-opacity:1;fill-rule:nonzero;stroke:none"
                 d="m 0,0 c -0.62,-0.74 -1.196,-1.327 -1.762,-1.762 -0.566,-0.435 -1.371,-0.653 -2.415,-0.653 -1.012,0 -1.915,0.239 -2.709,0.718 -0.805,0.479 -1.708,1.012 -2.709,1.599 -1.011,0.588 -2.175,1.12 -3.524,1.599 -1.349,0.479 -3.024,0.718 -5.026,0.718 -2.48,0 -4.623,-0.457 -6.429,-1.37 -1.806,-0.914 -3.307,-2.22 -4.471,-3.917 -1.175,-1.697 -2.045,-3.774 -2.611,-6.233 -0.566,-2.458 -0.848,-5.233 -0.848,-8.322 0,-6.483 1.251,-11.466 3.742,-14.946 2.512,-3.471 5.95,-5.211 10.356,-5.211 2.339,0 4.21,0.294 5.581,0.87 1.37,0.598 2.534,1.251 3.492,1.969 0.946,0.717 1.838,1.381 2.643,1.98 0.805,0.598 1.816,0.913 3.035,0.913 1.61,0 2.828,-0.587 3.655,-1.751 l 5.875,-7.245 c -2.089,-2.394 -4.287,-4.341 -6.593,-5.852 -2.306,-1.491 -4.667,-2.666 -7.082,-3.514 -2.414,-0.849 -4.841,-1.447 -7.277,-1.763 -2.437,-0.326 -4.808,-0.489 -7.115,-0.489 -4.134,0 -8.082,0.772 -11.846,2.349 -3.775,1.567 -7.071,3.84 -9.921,6.822 -2.851,2.97 -5.113,6.646 -6.789,10.986 -1.675,4.352 -2.512,9.313 -2.512,14.882 0,4.873 0.729,9.432 2.186,13.674 1.447,4.243 3.612,7.92 6.451,11.031 2.861,3.111 6.375,5.559 10.585,7.343 4.199,1.784 9.061,2.676 14.588,2.676 5.308,0 9.964,-0.849 13.968,-2.546 4.003,-1.697 7.604,-4.177 10.835,-7.441 z" />
            </g>
            <g
               transform="translate(700.5728,594.748)"
               id="g196">
              <path
                 id="path198"
                 style="fill:#231f20;fill-opacity:1;fill-rule:nonzero;stroke:none"
                 d="m 0,0 c 0,-1.599 -0.315,-3.122 -0.979,-4.537 -0.652,-1.414 -1.544,-2.654 -2.676,-3.72 -1.131,-1.055 -2.448,-1.904 -3.938,-2.545 -1.512,-0.631 -3.1,-0.947 -4.808,-0.947 -1.654,0 -3.198,0.315 -4.634,0.947 -1.425,0.641 -2.709,1.49 -3.819,2.545 -1.109,1.066 -1.979,2.306 -2.6,3.72 -0.641,1.415 -0.946,2.938 -0.946,4.537 0,1.664 0.305,3.198 0.946,4.634 0.621,1.447 1.491,2.698 2.6,3.797 1.11,1.076 2.394,1.925 3.819,2.534 1.436,0.62 2.98,0.914 4.634,0.914 1.708,0 3.296,-0.294 4.808,-0.914 1.49,-0.609 2.807,-1.458 3.938,-2.534 1.132,-1.099 2.024,-2.35 2.676,-3.797 C -0.315,3.198 0,1.664 0,0 m -2.078,-86.211 h -20.234 v 67.674 h 20.234 z" />
            </g>
            <g
               transform="translate(729.2959,538.7559)"
               id="g200">
              <path
                 id="path202"
                 style="fill:#231f20;fill-opacity:1;fill-rule:nonzero;stroke:none"
                 d="m 0,0 c 0.653,-5.668 2.372,-9.769 5.157,-12.293 2.784,-2.545 6.374,-3.829 10.769,-3.829 2.35,0 4.373,0.294 6.07,0.859 1.697,0.555 3.21,1.198 4.537,1.882 1.327,0.708 2.545,1.327 3.654,1.883 1.11,0.576 2.274,0.848 3.493,0.848 1.61,0 2.828,-0.577 3.655,-1.751 l 5.874,-7.245 c -2.088,-2.382 -4.34,-4.33 -6.755,-5.842 -2.415,-1.501 -4.896,-2.665 -7.441,-3.514 -2.546,-0.849 -5.091,-1.446 -7.637,-1.762 -2.545,-0.327 -4.971,-0.49 -7.277,-0.49 -4.744,0 -9.193,0.762 -13.348,2.317 -4.156,1.535 -7.789,3.83 -10.9,6.886 -3.112,3.046 -5.57,6.832 -7.376,11.347 -1.806,4.525 -2.708,9.79 -2.708,15.795 0,4.525 0.772,8.801 2.316,12.847 1.545,4.047 3.765,7.604 6.658,10.65 2.894,3.036 6.397,5.461 10.509,7.245 4.112,1.784 8.757,2.676 13.935,2.676 4.482,0 8.583,-0.696 12.303,-2.088 3.72,-1.393 6.919,-3.427 9.595,-6.07 2.676,-2.655 4.765,-5.907 6.266,-9.769 1.501,-3.84 2.252,-8.203 2.252,-13.087 0,-1.512 -0.065,-2.763 -0.196,-3.709 C 43.274,2.828 43.035,2.056 42.687,1.501 42.339,0.936 41.871,0.544 41.284,0.315 40.696,0.108 39.946,0 39.032,0 Z m 25.456,11.749 c 0,1.599 -0.207,3.176 -0.621,4.699 -0.413,1.512 -1.087,2.872 -2.023,4.079 -0.936,1.197 -2.165,2.165 -3.687,2.894 -1.523,0.751 -3.373,1.121 -5.549,1.121 -3.829,0 -6.831,-1.11 -9.007,-3.296 C 2.394,19.048 0.958,15.882 0.261,11.749 Z" />
            </g>
            <g
               transform="translate(801.6753,568.9043)"
               id="g204">
              <path
                 id="path206"
                 style="fill:#231f20;fill-opacity:1;fill-rule:nonzero;stroke:none"
                 d="m 0,0 c 1.305,1.218 2.654,2.35 4.047,3.394 1.392,1.044 2.893,1.925 4.471,2.654 1.599,0.707 3.307,1.273 5.156,1.686 1.86,0.414 3.862,0.631 6.037,0.631 3.699,0 6.974,-0.653 9.824,-1.936 2.861,-1.273 5.254,-3.057 7.212,-5.341 1.969,-2.285 3.438,-5.005 4.439,-8.159 1.001,-3.155 1.501,-6.593 1.501,-10.291 V -60.364 H 22.453 v 43.002 c 0,3.307 -0.762,5.885 -2.285,7.735 -1.522,1.849 -3.763,2.773 -6.722,2.773 -2.219,0 -4.297,-0.467 -6.234,-1.403 -1.936,-0.935 -3.818,-2.208 -5.635,-3.807 v -48.3 H -18.667 V 7.31 h 12.542 c 2.513,0 4.167,-1.131 4.961,-3.394 z" />
            </g>
            <g
               transform="translate(907.1543,560.1611)"
               id="g208">
              <path
                 id="path210"
                 style="fill:#231f20;fill-opacity:1;fill-rule:nonzero;stroke:none"
                 d="m 0,0 c -0.62,-0.74 -1.197,-1.327 -1.762,-1.762 -0.566,-0.435 -1.371,-0.653 -2.415,-0.653 -1.012,0 -1.915,0.239 -2.709,0.718 -0.805,0.479 -1.708,1.012 -2.709,1.599 -1.011,0.588 -2.176,1.12 -3.525,1.599 -1.348,0.479 -3.024,0.718 -5.025,0.718 -2.48,0 -4.624,-0.457 -6.429,-1.37 -1.806,-0.914 -3.307,-2.22 -4.471,-3.917 -1.175,-1.697 -2.045,-3.774 -2.611,-6.233 -0.566,-2.458 -0.849,-5.233 -0.849,-8.322 0,-6.483 1.251,-11.466 3.742,-14.946 2.513,-3.471 5.951,-5.211 10.357,-5.211 2.339,0 4.21,0.294 5.58,0.87 1.371,0.598 2.535,1.251 3.492,1.969 0.947,0.717 1.839,1.381 2.644,1.98 0.805,0.598 1.816,0.913 3.035,0.913 1.61,0 2.828,-0.587 3.655,-1.751 l 5.874,-7.245 c -2.088,-2.394 -4.286,-4.341 -6.592,-5.852 -2.306,-1.491 -4.667,-2.666 -7.082,-3.514 -2.415,-0.849 -4.841,-1.447 -7.278,-1.763 -2.436,-0.326 -4.808,-0.489 -7.114,-0.489 -4.134,0 -8.082,0.772 -11.847,2.349 -3.774,1.567 -7.07,3.84 -9.92,6.822 -2.851,2.97 -5.113,6.646 -6.789,10.986 -1.675,4.352 -2.513,9.313 -2.513,14.882 0,4.873 0.729,9.432 2.187,13.674 1.447,4.243 3.612,7.92 6.451,11.031 2.861,3.111 6.374,5.559 10.584,7.343 4.2,1.784 9.062,2.676 14.588,2.676 5.309,0 9.965,-0.849 13.968,-2.546 4.004,-1.697 7.604,-4.177 10.835,-7.441 z" />
            </g>
            <g
               transform="translate(936.3994,538.7559)"
               id="g212">
              <path
                 id="path214"
                 style="fill:#231f20;fill-opacity:1;fill-rule:nonzero;stroke:none"
                 d="m 0,0 c 0.653,-5.668 2.372,-9.769 5.156,-12.293 2.785,-2.545 6.375,-3.829 10.77,-3.829 2.35,0 4.373,0.294 6.07,0.859 1.697,0.555 3.209,1.198 4.536,1.882 1.327,0.708 2.546,1.327 3.655,1.883 1.11,0.576 2.274,0.848 3.493,0.848 1.609,0 2.828,-0.577 3.655,-1.751 l 5.874,-7.245 c -2.089,-2.382 -4.341,-4.33 -6.756,-5.842 -2.415,-1.501 -4.894,-2.665 -7.44,-3.514 -2.546,-0.849 -5.092,-1.446 -7.637,-1.762 -2.545,-0.327 -4.971,-0.49 -7.277,-0.49 -4.744,0 -9.193,0.762 -13.349,2.317 -4.155,1.535 -7.788,3.83 -10.899,6.886 -3.112,3.046 -5.57,6.832 -7.376,11.347 -1.806,4.525 -2.709,9.79 -2.709,15.795 0,4.525 0.773,8.801 2.317,12.847 1.545,4.047 3.764,7.604 6.658,10.65 2.894,3.036 6.397,5.461 10.509,7.245 4.111,1.784 8.756,2.676 13.935,2.676 4.482,0 8.583,-0.696 12.303,-2.088 3.721,-1.393 6.919,-3.427 9.595,-6.07 2.676,-2.655 4.765,-5.907 6.266,-9.769 1.501,-3.84 2.252,-8.203 2.252,-13.087 0,-1.512 -0.066,-2.763 -0.197,-3.709 C 43.274,2.828 43.035,2.056 42.687,1.501 42.339,0.936 41.871,0.544 41.283,0.315 40.696,0.108 39.945,0 39.031,0 Z m 25.455,11.749 c 0,1.599 -0.206,3.176 -0.62,4.699 -0.413,1.512 -1.087,2.872 -2.023,4.079 -0.936,1.197 -2.165,2.165 -3.688,2.894 -1.523,0.751 -3.372,1.121 -5.548,1.121 -3.829,0 -6.831,-1.11 -9.007,-3.296 C 2.394,19.048 0.958,15.882 0.261,11.749 Z" />
            </g>
          </g>
        </g>
      </g>
    </g>
  </g>
</svg>
