<?xml version="1.0" encoding="UTF-8" standalone="no"?>
<svg
   xmlns:dc="http://purl.org/dc/elements/1.1/"
   xmlns:cc="http://creativecommons.org/ns#"
   xmlns:rdf="http://www.w3.org/1999/02/22-rdf-syntax-ns#"
   xmlns:svg="http://www.w3.org/2000/svg"
   xmlns="http://www.w3.org/2000/svg"
   xmlns:sodipodi="http://sodipodi.sourceforge.net/DTD/sodipodi-0.dtd"
   xmlns:inkscape="http://www.inkscape.org/namespaces/inkscape"
   sodipodi:docname="OpenScience_v2f.svg"
   inkscape:version="1.0 (4035a4fb49, 2020-05-01)"
   id="svg8"
   version="1.1"
   viewBox="0 0 210 297"
   height="297mm"
   width="210mm">
  <defs
     id="defs2">
    <clipPath
       clipPathUnits="userSpaceOnUse"
       id="clipPath26">
      <path
         d="M 0,1080 H 1079 V 0 H 0 Z"
         id="path24" />
    </clipPath>
    <clipPath
       clipPathUnits="userSpaceOnUse"
       id="clipPath38">
      <path
         d="M 0,1080 H 1079 V 0 H 0 Z"
         id="path36" />
    </clipPath>
    <clipPath
       clipPathUnits="userSpaceOnUse"
       id="clipPath50">
      <path
         d="M 0,1080 H 1079 V 0 H 0 Z"
         id="path48" />
    </clipPath>
    <clipPath
       clipPathUnits="userSpaceOnUse"
       id="clipPath62">
      <path
         d="M 0,1080 H 1079 V 0 H 0 Z"
         id="path60" />
    </clipPath>
    <clipPath
       clipPathUnits="userSpaceOnUse"
       id="clipPath74">
      <path
         d="M 0,1080 H 1079 V 0 H 0 Z"
         id="path72" />
    </clipPath>
    <clipPath
       clipPathUnits="userSpaceOnUse"
       id="clipPath126">
      <path
         d="M 0,1080 H 1079 V 0 H 0 Z"
         id="path124" />
    </clipPath>
    <clipPath
       clipPathUnits="userSpaceOnUse"
       id="clipPath174">
      <path
         d="M 0,1080 H 1079 V 0 H 0 Z"
         id="path172" />
    </clipPath>
  </defs>
  <sodipodi:namedview
     inkscape:window-maximized="1"
     inkscape:window-y="-8"
     inkscape:window-x="1592"
     inkscape:window-height="1027"
     inkscape:window-width="1920"
     showgrid="false"
     inkscape:document-rotation="0"
     inkscape:current-layer="g46"
     inkscape:document-units="mm"
     inkscape:cy="476.23846"
     inkscape:cx="486.61694"
     inkscape:zoom="0.98994949"
     inkscape:pageshadow="2"
     inkscape:pageopacity="0.0"
     borderopacity="1.0"
     bordercolor="#666666"
     pagecolor="#ffffff"
     id="base" />
  <metadata
     id="metadata5">
    <rdf:RDF>
      <cc:Work
         rdf:about="">
        <dc:format>image/svg+xml</dc:format>
        <dc:type
           rdf:resource="http://purl.org/dc/dcmitype/StillImage" />
        <dc:title></dc:title>
      </cc:Work>
    </rdf:RDF>
  </metadata>
  <g
     id="layer1"
     inkscape:groupmode="layer"
     inkscape:label="Calque 1">
    <g
       id="g18"
       inkscape:label="logo3 fichier source adobe illustrator - Copie"
       transform="matrix(0.35277777,0,0,-0.35277777,-67.843806,300.39972)">
      <g
         transform="matrix(0.5,0,0,0.5,235.21344,278.79471)"
         id="g20"
         style="fill:#ffffff;fill-opacity:0.996933">
        <g
           id="g22"
           clip-path="url(#clipPath26)"
           style="fill:#ffffff;fill-opacity:0.996933;stroke:#96c34f;stroke-opacity:1"
           inkscape:export-xdpi="300"
           inkscape:export-ydpi="300" />
      </g>
      <g
         transform="matrix(0.5,0,0,0.5,235.21344,278.79471)"
         id="g44"
         style="fill:#ffffff;fill-opacity:0;stroke:#96c34f;stroke-opacity:1">
        <g
           id="g46"
           clip-path="url(#clipPath50)"
           style="fill:#ffffff;fill-opacity:0;stroke:#96c34f;stroke-opacity:1">
          <g
             inkscape:export-ydpi="300"
             inkscape:export-xdpi="300"
             id="g52"
             transform="translate(902.5,541)"
             style="fill:#ffffff;fill-opacity:1;stroke:#96c34f;stroke-opacity:1">
            <path
               d="m 0,0 c 0,-200.756 -162.745,-363.5 -363.5,-363.5 -200.755,0 -363.5,162.744 -363.5,363.5 0,200.755 162.745,363.5 363.5,363.5 C -162.745,363.5 0,200.755 0,0 Z"
               style="fill:#ffffff;fill-opacity:1;stroke:#96c34f;stroke-width:27;stroke-linecap:butt;stroke-linejoin:miter;stroke-miterlimit:10;stroke-dasharray:none;stroke-opacity:1"
               id="path54" />
          </g>
        </g>
      </g>
      <g
         transform="matrix(0.5,0,0,0.5,235.21344,278.79471)"
         id="g56"
         style="stroke:#96c34f;stroke-opacity:1">
        <g
           id="g58"
           clip-path="url(#clipPath62)"
           style="stroke:#96c34f;stroke-opacity:1">
          <g
             id="g64"
             transform="translate(426.0425,880.686)"
             style="stroke:#96c34f;stroke-opacity:1">
            <path
               d="m 0,0 c 42.866,14.056 103.469,-54.128 175.958,-135.686 32.193,-36.221 59.365,-74.457 85,-110 30.147,-41.8 49.964,-69.276 69,-102 39.249,-67.472 98.59,-169.482 66,-211 -26.222,-33.404 -103.005,-16.248 -216,9 -50.594,11.305 -93.993,25.706 -122,35 -28.143,9.339 -75.152,24.938 -126,48 -107.142,48.593 -175.582,79.633 -176.478,120.88 -1.137,52.352 107.041,97.985 178.478,128.12 32.219,13.591 61.146,22.728 119,41 53.358,16.853 91.572,28.922 133,38 92.94,20.365 193.557,42.413 221,3 24.708,-35.486 -18.582,-108.332 -79,-210 -25.754,-43.336 -51.13,-78.04 -68,-101 -21.146,-28.777 -52.576,-71.551 -94,-115 C 86.794,-644.717 42.591,-691.081 6.65,-680.87 c -57.043,16.205 -62.939,166.577 -70.692,321.184 -1.148,22.876 -3.254,76.144 3,145 C -51.045,-104.608 -42.821,-14.042 0,0 Z"
               style="fill:none;stroke:#96c34f;stroke-width:16;stroke-linecap:butt;stroke-linejoin:miter;stroke-miterlimit:10;stroke-dasharray:none;stroke-opacity:1"
               id="path66" />
          </g>
        </g>
      </g>
    </g>
  </g>
</svg>
